<svg xmlns="http://www.w3.org/2000/svg" xmlns:xlink="http://www.w3.org/1999/xlink" viewBox="0 0 486.34 83.02"><defs><style>.cls-1{fill:none;}.cls-2{clip-path:url(#clip-path);}.cls-3{fill:#231f20;}.cls-4{fill:#019544;}</style><clipPath id="clip-path"><rect class="cls-1" x="131.91" y="24.14" width="354.42" height="44.57"/></clipPath></defs><g id="katman_2" data-name="katman 2"><g id="katman_1-2" data-name="katman 1"><image width="1920" height="1080" transform="scale(0.08)" xlink:href="D:%5CTokyay%5Csocial%5Cbusiness%5Clogotransparan.png"/><g class="cls-2"><polygon class="cls-3" points="131.91 24.79 131.91 32.29 140.82 32.29 140.82 57.51 148.92 57.51 148.92 32.29 157.88 32.29 157.88 24.79 131.91 24.79"/><g class="cls-2"><path class="cls-3" d="M159.42,41.15c0-9.81,7.21-17,17.41-17s17.41,7.2,17.41,17-7.2,17-17.41,17-17.41-7.21-17.41-17m26.62,0c0-5.5-3.66-9.51-9.21-9.51s-9.2,4-9.2,9.51,3.65,9.5,9.2,9.5,9.21-4,9.21-9.5"/><polygon class="cls-3" points="199.29 24.79 207.39 24.79 207.39 38.15 216.9 24.79 226.9 24.79 214.54 40.8 227.4 57.51 217.15 57.51 207.39 43.75 207.39 57.51 199.29 57.51 199.29 24.79"/><polygon class="cls-3" points="239.75 43.95 227.8 24.79 237.35 24.79 243.8 36.3 250.26 24.79 259.61 24.79 247.86 43.7 247.86 57.51 239.75 57.51 239.75 43.95"/><path class="cls-3" d="M260,38.5c0-8.91,5.05-14.36,14.35-14.36s14.46,5.45,14.46,14.36v19h-8.1V48.2H267.86v9.31H260Zm20.71,2.7V38.5c0-4.5-1.95-6.86-6.4-6.86s-6.41,2.36-6.41,6.86v2.7Z"/><polygon class="cls-3" points="301.12 43.95 289.17 24.79 298.72 24.79 305.18 36.3 311.63 24.79 320.98 24.79 309.23 43.7 309.23 57.51 301.12 57.51 301.12 43.95"/><path class="cls-4" d="M324.73,24.79h15.76c6.05,0,9.3,3.5,9.3,8.41a7.61,7.61,0,0,1-4.5,7.3v.1a8.09,8.09,0,0,1,6,8.15c0,5-3.3,8.75-9.5,8.75H324.73ZM339.94,38.5c3.1,0,4.8-1.9,4.8-4.51s-1.4-4.5-4.9-4.5h-10v9Zm1,14.3c3.6,0,5.1-2.1,5.1-4.7a4.65,4.65,0,0,0-5-4.9H329.83v9.6Z"/><path class="cls-4" d="M355.14,38.25c0-8.66,5-14.11,14.16-14.11s14.3,5.45,14.3,14.11V57.51h-5.1V47.15H360.09V57.51h-4.95Zm23.36,4.2v-4.2c0-5.9-3.1-9.41-9.2-9.41s-9.21,3.51-9.21,9.41v4.2Z"/><polygon class="cls-4" points="389.56 24.79 394.66 24.79 394.66 38.55 412.91 38.55 412.91 24.79 418.02 24.79 418.02 57.51 412.91 57.51 412.91 43.25 394.66 43.25 394.66 57.51 389.56 57.51 389.56 24.79"/><path class="cls-4" d="M451.83,46.05h5.4c-2,7-8,11.76-15.86,12.1l-1.05,2.36a3.31,3.31,0,0,1,1.15-.15,3.83,3.83,0,0,1,4.1,4c0,2.75-2.05,4.35-5.4,4.35-3.15,0-5.2-1.45-5.35-4h3.3c.1,1,.95,1.4,2.05,1.4s2.05-.5,2.05-1.7a1.57,1.57,0,0,0-1.7-1.55,2.65,2.65,0,0,0-1.4.35L437,61.86l1.55-3.81a16.46,16.46,0,0,1-15.45-16.9c0-9.81,7.2-17,17.4-17,8.36,0,14.76,4.9,16.76,12.11h-5.4a11.71,11.71,0,0,0-11.36-7.41c-7.25,0-12.25,5.2-12.25,12.31s5,12.3,12.25,12.3a11.72,11.72,0,0,0,11.36-7.4"/><polygon class="cls-4" points="462.28 24.79 486.34 24.79 486.34 29.49 467.38 29.49 467.38 38.5 483.44 38.5 483.44 43.2 467.38 43.2 467.38 52.8 486.34 52.8 486.34 57.51 462.28 57.51 462.28 24.79"/></g></g></g></g></svg>